<?xml version="1.0" encoding="UTF-8"?>
<svg version="1.1" xmlns="http://www.w3.org/2000/svg" width="353" height="54">
<path d="M0 0 C4.86479273 3.45940816 6.33867097 7.57127154 7.46484375 13.34375 C7.81266571 15.63886719 8.1320176 17.93854366 8.41796875 20.2421875 C8.65762978 22.95362593 8.65762978 22.95362593 9.8125 25 C19.80613845 26.26977994 29.49161564 22.69893202 37.64453125 17.03125 C39.27182172 15.69866568 40.88208356 14.34495266 42.47265625 12.96875 C47.23118262 8.96491479 52.16436564 5.27394493 58.4375 4.625 C59.22125 4.74875 60.005 4.8725 60.8125 5 C62 7.1875 62 7.1875 62.8125 10 C56.56713821 22.71745288 40.42443462 31.01264109 27.75 36.0625 C19.93318451 38.62669941 11.3405577 39.89762805 3.578125 36.64453125 C-0.74669398 34.07285216 -3.38422659 30.86021211 -5.375 26.25 C-6.47194412 21.86222353 -7.36155 17.44607127 -8.1875 13 C-9.49460938 13.97839844 -9.49460938 13.97839844 -10.828125 14.9765625 C-23.25411372 24.14511689 -34.88359493 31.35295829 -50.6875 31.375 C-51.61175781 31.39949219 -52.53601563 31.42398438 -53.48828125 31.44921875 C-59.24828144 31.47393978 -62.6555626 30.90684258 -67.1875 27 C-69.5625 24.25 -69.5625 24.25 -71.1875 22 C-71.97253906 22.13277344 -72.75757813 22.26554687 -73.56640625 22.40234375 C-74.61699219 22.57894531 -75.66757813 22.75554688 -76.75 22.9375 C-78.29880859 23.19853516 -78.29880859 23.19853516 -79.87890625 23.46484375 C-80.97074219 23.64144531 -82.06257813 23.81804688 -83.1875 24 C-84.78694458 24.25885986 -84.78694458 24.25885986 -86.41870117 24.52294922 C-93.22510701 25.38449725 -100.08631869 25.19381793 -106.9375 25.1875 C-107.73983063 25.1882251 -108.54216125 25.1889502 -109.36880493 25.18969727 C-120.65422871 25.18857661 -131.79345347 24.73672763 -143.0378418 23.71166992 C-153.91054474 22.785895 -164.75185869 22.88554059 -175.65307617 23.07421875 C-176.34035797 23.08267822 -177.02763977 23.0911377 -177.73574829 23.09985352 C-179.6104918 23.12358044 -181.48507577 23.15907242 -183.35961914 23.1953125 C-186.1875 23 -186.1875 23 -188.1875 21 C-188.6875 18.6875 -188.6875 18.6875 -188.1875 16 C-183.56292873 11.02858588 -178.64686178 9.36961599 -171.91650391 8.81176758 C-169.35750893 8.72860155 -166.81023785 8.72439305 -164.25 8.75 C-163.27562988 8.75386719 -162.30125977 8.75773438 -161.29736328 8.76171875 C-152.36674878 8.86105511 -143.47123157 9.41691806 -134.5625 10 C-108.24034294 12.81782331 -108.24034294 12.81782331 -82.76953125 7.953125 C-76.67757046 5.70435279 -68.74762757 5.85626767 -62.8125 8.5625 C-59.23992518 10.6210191 -56.78885888 13.4396211 -54.31640625 16.70703125 C-51.27189864 18.55608083 -49.01402647 18.11831128 -45.56176758 17.58959961 C-41.7359649 16.63954167 -38.60150903 14.90789618 -35.25 12.875 C-34.5597876 12.47337646 -33.8695752 12.07175293 -33.15844727 11.65795898 C-29.17327047 9.30636454 -25.37087001 6.78312424 -21.625 4.0625 C-14.94692424 -0.76179553 -8.02412701 -2.51737318 0 0 Z " fill="#010100" transform="translate(201.1875,6)"/>
<path d="M0 0 C4.83247444 4.60957432 5.01537858 9.56607969 5.77734375 15.84960938 C6.26971856 19.29927237 6.72274254 21.57692081 8.65625 24.52734375 C11.97953893 26.61547696 14.12300376 26.40402382 18 26 C28.9371886 23.24813777 38.65842538 19.17569439 47.02734375 11.55859375 C50.97055696 8.4430649 55.53698887 6.27589356 60 4 C60 8 60 8 58.125 10.25 C57.09660816 11.18153499 56.05267401 12.09599521 55 13 C54.34128906 13.59941406 53.68257812 14.19882812 53.00390625 14.81640625 C42.01979904 24.28163185 26.4098572 32.87513117 11.58203125 32.3359375 C7.28988776 31.77750431 5.37103831 30.82066471 2 28 C-2.87514018 21.21654807 -2.770695 13.06007058 -3 5 C-7.92674949 6.94720965 -11.88713569 9.15671935 -16.1875 12.3125 C-25.79227784 19.18306078 -36.17333071 25.77866973 -48.3125 24.625 C-50.16294922 24.45871094 -50.16294922 24.45871094 -52.05078125 24.2890625 C-53.02402344 24.19367187 -53.99726563 24.09828125 -55 24 C-55.33 24 -55.66 24 -56 24 C-56.33 24.66 -56.66 25.32 -57 26 C-62.25326356 23.37336822 -65.10863162 21.32011782 -68 16 C-68 15.34 -68 14.68 -68 14 C-69.12277344 14.27714844 -70.24554688 14.55429687 -71.40234375 14.83984375 C-72.91399221 15.20601946 -74.425715 15.5718884 -75.9375 15.9375 C-76.67291016 16.11990234 -77.40832031 16.30230469 -78.16601562 16.49023438 C-87.44851266 18.71965506 -96.47085778 19.19324521 -106 19.1875 C-107.7166687 19.1884668 -107.7166687 19.1884668 -109.46801758 19.18945312 C-116.92758419 19.14432754 -124.26581917 18.71870893 -131.6875 18 C-149.06438951 16.32468519 -166.56319679 16.82615351 -184 17 C-184 16.01 -184 15.02 -184 14 C-174.87028968 7.97827617 -165.47300388 8.89761244 -154.875 9.375 C-153.75351563 9.41882812 -152.63203125 9.46265625 -151.4765625 9.5078125 C-145.54415314 9.75161015 -139.62860978 10.0905816 -133.70703125 10.5234375 C-126.13414812 11.04101569 -118.58918845 11.21984346 -111.0012207 11.24023438 C-108.80317722 11.2500416 -106.60603351 11.28127319 -104.40820312 11.3125 C-95.40583748 11.37857426 -86.2257959 11.11289795 -78 7 C-71.71744623 6.4027554 -66.52822707 6.72401359 -61 10 C-58.93174018 12.01564264 -56.98089709 14.07490526 -55.08984375 16.2578125 C-52.3582175 18.53501868 -50.53225783 18.83944283 -47 19 C-36.06136504 16.22951604 -25.29229028 8.90069666 -16.23828125 2.2734375 C-10.93951339 -1.44656599 -6.21988332 -1.61256234 0 0 Z " fill="#F0A619" transform="translate(198,8)"/>
<path d="M0 0 C1.18851563 0.04382813 2.37703125 0.08765625 3.6015625 0.1328125 C9.25652791 0.36002093 14.79547264 0.65962723 20.375 1.625 C20.375 2.285 20.375 2.945 20.375 3.625 C23.675 3.625 26.975 3.625 30.375 3.625 C30.045 4.615 29.715 5.605 29.375 6.625 C49.175 7.12 49.175 7.12 69.375 7.625 C69.375 7.955 69.375 8.285 69.375 8.625 C62.3472337 9.54007374 55.45917318 9.81677111 48.375 9.8125 C46.6583313 9.8134668 46.6583313 9.8134668 44.90698242 9.81445312 C37.44741581 9.76932754 30.10918083 9.34370893 22.6875 8.625 C5.31061049 6.94968519 -12.18819679 7.45115351 -29.625 7.625 C-29.625 6.635 -29.625 5.645 -29.625 4.625 C-20.36591609 -1.48205534 -10.74810537 -0.46934958 0 0 Z " fill="#EEA315" transform="translate(43.625,17.375)"/>
<path d="M0 0 C11.88 0 23.76 0 36 0 C36 0.99 36 1.98 36 3 C32.42727882 4.19090706 29.54746816 4.12957177 25.77734375 4.1328125 C24.72541588 4.13424759 24.72541588 4.13424759 23.65223694 4.13571167 C22.17204702 4.13639133 20.69185409 4.13455195 19.21166992 4.13037109 C16.94247781 4.12501176 14.6734829 4.13032737 12.40429688 4.13671875 C10.9661454 4.13605809 9.52799404 4.13477717 8.08984375 4.1328125 C6.77878662 4.13168457 5.46772949 4.13055664 4.11694336 4.12939453 C1 4 1 4 -1 3 C-0.67 2.01 -0.34 1.02 0 0 Z " fill="#FCA804" transform="translate(74,21)"/>
<path d="M0 0 C3.59905509 3.62547017 4.64452002 6.54974591 5.3125 11.5625 C5.47363281 12.67753906 5.63476562 13.79257812 5.80078125 14.94140625 C5.97747156 17.65412226 5.86459557 19.4559742 5 22 C1.70798713 18.70798713 2.54032544 14.35792824 2.34375 9.87109375 C2.2303125 8.92363281 2.116875 7.97617188 2 7 C1.34 6.67 0.68 6.34 0 6 C-0.33 10.29 -0.66 14.58 -1 19 C-1.33 19 -1.66 19 -2 19 C-2.33 14.38 -2.66 9.76 -3 5 C-8.56717533 7.35456323 -8.56717533 7.35456323 -14 10 C-14 9.01 -14 8.02 -14 7 C-13.01 7 -12.02 7 -11 7 C-11.33 5.68 -11.66 4.36 -12 3 C-8.18510326 1.53273202 -5.70988378 2.56663581 -2 4 C-2 3.01 -2 2.02 -2 1 C-3.62600941 1.0870005 -5.25089678 1.1951781 -6.875 1.3125 C-8.23238281 1.39951172 -8.23238281 1.39951172 -9.6171875 1.48828125 C-12.36221601 1.7882039 -12.36221601 1.7882039 -14 5 C-17.125 5.6875 -17.125 5.6875 -20 6 C-13.9654179 -0.24267113 -8.64427208 -2.24110758 0 0 Z " fill="#E9A621" transform="translate(198,8)"/>
<path d="M0 0 C0.50789062 0.42152344 1.01578125 0.84304687 1.5390625 1.27734375 C5.63697826 4.53879356 8.57988765 6.72899438 14 7 C13.01 7.495 13.01 7.495 12 8 C12 8.66 12 9.32 12 10 C14.97 10 17.94 10 21 10 C17.17504005 12.5499733 15.39020459 12.04221603 10.875 11.625 C8.98394531 11.45871094 8.98394531 11.45871094 7.0546875 11.2890625 C5.54261719 11.14597656 5.54261719 11.14597656 4 11 C3.67 11 3.34 11 3 11 C2.67 11.66 2.34 12.32 2 13 C-3.89264712 10.16699658 -6.16699658 7.89264712 -9 2 C-8.01 2.33 -7.02 2.66 -6 3 C-6 3.66 -6 4.32 -6 5 C-4.35 5.33 -2.7 5.66 -1 6 C-0.67 4.02 -0.34 2.04 0 0 Z " fill="#EEA921" transform="translate(139,21)"/>
<path d="M0 0 C4.95 0.99 4.95 0.99 10 2 C10.66 3.98 11.32 5.96 12 8 C11.01 8.99 10.02 9.98 9 11 C6.13998967 9.71792641 3.92960588 8.50848764 2 6 C2 4.68 2 3.36 2 2 C1.34 2 0.68 2 0 2 C0 1.34 0 0.68 0 0 Z " fill="#FBA806" transform="translate(128,17)"/>
<path d="M0 0 C6.7995704 0.09212018 13.59877858 0.19940545 20.39794922 0.31738281 C22.71234669 0.35573401 25.02680502 0.3905759 27.34130859 0.421875 C30.66265664 0.4673924 33.98358341 0.52540843 37.3046875 0.5859375 C38.34430634 0.59748871 39.38392517 0.60903992 40.45504761 0.62094116 C41.41589264 0.64081085 42.37673767 0.66068054 43.36669922 0.68115234 C44.21497284 0.69447601 45.06324646 0.70779968 45.93722534 0.7215271 C48 1 48 1 50 3 C33.5 3 17 3 0 3 C0 2.01 0 1.02 0 0 Z " fill="#D99B2E" transform="translate(14,22)"/>
<path d="M0 0 C0.33 0.99 0.66 1.98 1 3 C0.01 3 -0.98 3 -2 3 C-2.1546875 3.928125 -2.1546875 3.928125 -2.3125 4.875 C-3 7 -3 7 -6 9 C-8.04296875 9.4140625 -8.04296875 9.4140625 -10.1875 9.625 C-11.445625 9.74875 -12.70375 9.8725 -14 10 C-13.67 9.01 -13.34 8.02 -13 7 C-12.01 6.67 -11.02 6.34 -10 6 C-9.5875 5.54625 -9.175 5.0925 -8.75 4.625 C-6.16038514 2.22035763 -3.27684866 1.298374 0 0 Z " fill="#F6A50E" transform="translate(242,24)"/>
<path d="M0 0 C1.485 0.99 1.485 0.99 3 2 C3.29296875 4.8203125 3.29296875 4.8203125 3.1875 8.125 C3.16042969 9.22070312 3.13335937 10.31640625 3.10546875 11.4453125 C3.07066406 12.28835937 3.03585938 13.13140625 3 14 C1.68 14 0.36 14 -1 14 C-1.02685938 11.85423363 -1.04633088 9.70837355 -1.0625 7.5625 C-1.07410156 6.36753906 -1.08570313 5.17257813 -1.09765625 3.94140625 C-1 1 -1 1 0 0 Z " fill="#FBA804" transform="translate(198,13)"/>
<path d="M0 0 C1.33998047 0.06960938 1.33998047 0.06960938 2.70703125 0.140625 C3.60808594 0.17671875 4.50914062 0.2128125 5.4375 0.25 C6.46810547 0.31960938 6.46810547 0.31960938 7.51953125 0.390625 C7.51953125 1.380625 7.51953125 2.370625 7.51953125 3.390625 C5.53953125 3.390625 3.55953125 3.390625 1.51953125 3.390625 C1.51953125 2.730625 1.51953125 2.070625 1.51953125 1.390625 C0.52953125 2.050625 -0.46046875 2.710625 -1.48046875 3.390625 C-1.48046875 4.380625 -1.48046875 5.370625 -1.48046875 6.390625 C-2.47046875 6.390625 -3.46046875 6.390625 -4.48046875 6.390625 C-4.48046875 7.380625 -4.48046875 8.370625 -4.48046875 9.390625 C-5.47046875 9.060625 -6.46046875 8.730625 -7.48046875 8.390625 C-3.86760467 0.6090716 -3.86760467 0.6090716 0 0 Z " fill="#FCA703" transform="translate(188.48046875,8.609375)"/>
<path d="M0 0 C0.350625 0.474375 0.70125 0.94875 1.0625 1.4375 C0.7325 2.0975 0.4025 2.7575 0.0625 3.4375 C-0.9275 2.7775 -1.9175 2.1175 -2.9375 1.4375 C-2.9375 0.7775 -2.9375 0.1175 -2.9375 -0.5625 C-4.73008558 -0.47556859 -6.52165144 -0.36739496 -8.3125 -0.25 C-9.80910156 -0.16298828 -9.80910156 -0.16298828 -11.3359375 -0.07421875 C-12.19445312 0.09464844 -13.05296875 0.26351563 -13.9375 0.4375 C-14.9275 1.9225 -14.9275 1.9225 -15.9375 3.4375 C-19.0625 4.125 -19.0625 4.125 -21.9375 4.4375 C-16.28244173 -1.41256028 -7.51235905 -6.05835407 0 0 Z " fill="#E1A629" transform="translate(199.9375,9.5625)"/>
<path d="M0 0 C0.33 0.66 0.66 1.32 1 2 C1.66 2.33 2.32 2.66 3 3 C3 3.99 3 4.98 3 6 C0.36 6.33 -2.28 6.66 -5 7 C-5.33 6.01 -5.66 5.02 -6 4 C-5.67 3.34 -5.34 2.68 -5 2 C-3.35 2 -1.7 2 0 2 C0 1.34 0 0.68 0 0 Z " fill="#FBA705" transform="translate(168,21)"/>
<path d="M0 0 C0.33 1.32 0.66 2.64 1 4 C-2.3 4 -5.6 4 -9 4 C-9 3.34 -9 2.68 -9 2 C-5.86501708 0.14223235 -3.62528568 -0.20140476 0 0 Z " fill="#FAA905" transform="translate(160,27)"/>
<path d="M0 0 C0.99 0.33 1.98 0.66 3 1 C3 1.66 3 2.32 3 3 C3.8971875 3.1546875 3.8971875 3.1546875 4.8125 3.3125 C7.36604035 4.11504125 8.32057364 4.93888584 10 7 C10.6833288 8.3248713 11.35222404 9.65738743 12 11 C5.6509885 8.51895424 2.86969732 6.21767753 0 0 Z " fill="#D0A23F" transform="translate(130,23)"/>
<path d="M0 0 C0.70125 0.639375 1.4025 1.27875 2.125 1.9375 C5.22841233 4.16386102 7.24620139 4.65080943 11 5 C11 5.33 11 5.66 11 6 C8.03 6 5.06 6 2 6 C2 6.99 2 7.98 2 9 C-2.875 7.25 -2.875 7.25 -4 5 C-2.68 5 -1.36 5 0 5 C0 3.35 0 1.7 0 0 Z " fill="#E2A526" transform="translate(204,30)"/>
<path d="M0 0 C2.64 1.98 5.28 3.96 8 6 C7.01 6.66 6.02 7.32 5 8 C5 7.34 5 6.68 5 6 C3.68 6.99 2.36 7.98 1 9 C0.34 8.67 -0.32 8.34 -1 8 C-0.67 5.36 -0.34 2.72 0 0 Z " fill="#E9A01B" transform="translate(139,21)"/>
<path d="M0 0 C0.66 0.33 1.32 0.66 2 1 C0.75023244 4.65316671 0.32901247 5.78065836 -3 8 C-3.75 6.25 -3.75 6.25 -4 4 C-2.0625 1.75 -2.0625 1.75 0 0 Z " fill="#D9A129" transform="translate(257,12)"/>
<path d="M0 0 C2.31 0 4.62 0 7 0 C5.71567636 2.56864728 4.63365249 2.946539 2 4 C0.68 4 -0.64 4 -2 4 C-1.34 2.68 -0.68 1.36 0 0 Z " fill="#FCA705" transform="translate(217,35)"/>
<path d="M0 0 C0 0.66 0 1.32 0 2 C-4.12168689 3.62950412 -6.70700357 4.26264601 -11 3 C-10.67 2.34 -10.34 1.68 -10 1 C-6.56187949 0.23597322 -3.53471921 0 0 0 Z " fill="#EEA420" transform="translate(116,18)"/>
<path d="M0 0 C2.31 0.66 4.62 1.32 7 2 C4 4 4 4 1.3125 3.625 C0.549375 3.41875 -0.21375 3.2125 -1 3 C-0.67 2.01 -0.34 1.02 0 0 Z " fill="#FBA706" transform="translate(206,35)"/>
<path d="M0 0 C6.93 0.495 6.93 0.495 14 1 C14 1.33 14 1.66 14 2 C9.38 2.33 4.76 2.66 0 3 C0 2.01 0 1.02 0 0 Z " fill="#E8A735" transform="translate(14,22)"/>
<path d="M0 0 C0.66 0 1.32 0 2 0 C2 0.99 2 1.98 2 3 C2.66 3.33 3.32 3.66 4 4 C1.69 5.32 -0.62 6.64 -3 8 C-3 7.01 -3 6.02 -3 5 C-2.01 5 -1.02 5 0 5 C-0.2784375 4.0409375 -0.2784375 4.0409375 -0.5625 3.0625 C-0.706875 2.381875 -0.85125 1.70125 -1 1 C-0.67 0.67 -0.34 0.34 0 0 Z " fill="#EBA210" transform="translate(187,10)"/>
</svg>
